<svg version="1.1" viewBox="0 0 512 512" xmlns="http://www.w3.org/2000/svg" xmlns:xlink="http://www.w3.org/1999/xlink" id="Capa_1" overflow="hidden"><g><g><path d=" M 402 166 C 396.48 166 392 170.48 392 176 C 392 181.52 396.48 186 402 186 C 407.52 186 412 181.52 412 176 C 412 170.48 407.52 166 402 166 Z" stroke="none" stroke-width="1" stroke-linecap="butt" fill="#FFFFFF" fill-opacity="1"/></g></g><g><g><path d=" M 482 126 L 372.18 126 L 340.474 62.587 C 335.357 52.356 325.075 46 313.64 46 L 198.36 46 C 186.923 46 176.641 52.356 171.526 62.588 L 139.82 126 L 120 126 L 120 116 C 120 99.458 106.542 86 90 86 L 70 86 C 53.458 86 40 99.458 40 116 L 40 126 L 30 126 C 13.458 126 0 139.458 0 156 C 0 183.175 0 425.429 0 436 C 0 452.542 13.458 466 30 466 L 482 466 C 498.542 466 512 452.542 512 436 C 512 408.825 512 166.571 512 156 C 512 139.458 498.542 126 482 126 Z M 189.415 71.532 C 191.121 68.12 194.548 66 198.36 66 L 313.64 66 C 317.452 66 320.88 68.12 322.586 71.532 L 349.82 126 L 162.18 126 L 189.415 71.532 Z M 60 116 C 60 110.486 64.486 106 70 106 L 90 106 C 95.514 106 100 110.486 100 116 L 100 126 L 60 126 L 60 116 Z M 20 225.9 L 146.451 225.9 C 133.161 246.661 126 270.992 126 296 C 126 321.01 133.162 345.243 146.45 366 L 20 366 L 20 225.9 Z M 256 186 C 316.133 186 366 234.719 366 296 C 366 357.212 316.203 406 256 406 C 195.743 406 146 357.158 146 296 C 146 234.795 195.79 186 256 186 Z M 492 436 C 492 441.514 487.514 446 482 446 L 30 446 C 24.486 446 20 441.514 20 436 L 20 386 L 162.226 386 C 186.661 411.472 220.575 426 256 426 C 291.431 426 325.348 411.468 349.775 386 L 492 386 L 492 436 Z M 492 366 L 365.549 366 C 378.839 345.239 386 321.009 386 296 C 386 270.991 378.839 246.761 365.549 226 L 492 226 L 492 366 Z M 492 206 L 349.774 206 C 325.34 180.528 291.426 166 256 166 C 220.57 166 186.653 180.532 162.225 206 L 20 206 L 20 156 C 20 150.486 24.486 146 30 146 C 39.081 146 467.942 146 482 146 C 487.514 146 492 150.486 492 156 L 492 206 Z" stroke="none" stroke-width="1" stroke-linecap="butt" fill="#FFFFFF" fill-opacity="1"/></g></g><g><g><path d=" M 286 86 L 226 86 C 220.477 86 216 90.477 216 96 C 216 101.523 220.477 106 226 106 L 286 106 C 291.522 106 296 101.523 296 96 C 296 90.477 291.522 86 286 86 Z" stroke="none" stroke-width="1" stroke-linecap="butt" fill="#FFFFFF" fill-opacity="1"/></g></g><g><g><path d=" M 256 206 C 206.374 206 166 246.374 166 296 C 166 345.626 206.374 386 256 386 C 305.626 386 346 345.626 346 296 C 346 246.374 305.626 206 256 206 Z M 256 366 C 217.402 366 186 334.598 186 296 C 186 257.402 217.402 226 256 226 C 294.598 226 326 257.402 326 296 C 326 334.598 294.598 366 256 366 Z" stroke="none" stroke-width="1" stroke-linecap="butt" fill="#FFFFFF" fill-opacity="1"/></g></g><g><g><path d=" M 256 246 C 228.43 246 206 268.43 206 296 C 206 301.523 210.477 306 216 306 C 221.523 306 226 301.523 226 296 C 226 279.458 239.458 266 256 266 C 261.522 266 266 261.523 266 256 C 266 250.477 261.522 246 256 246 Z" stroke="none" stroke-width="1" stroke-linecap="butt" fill="#FFFFFF" fill-opacity="1"/></g></g><g><g><path d=" M 462 166 L 442 166 C 436.478 166 432 170.477 432 176 C 432 181.523 436.478 186 442 186 L 462 186 C 467.522 186 472 181.523 472 176 C 472 170.477 467.522 166 462 166 Z" stroke="none" stroke-width="1" stroke-linecap="butt" fill="#FFFFFF" fill-opacity="1"/></g></g><g></g><g></g><g></g><g></g><g></g><g></g><g></g><g></g><g></g><g></g><g></g><g></g><g></g><g></g><g></g></svg>
