<svg version="1.1" viewBox="0 0 480 480" xmlns="http://www.w3.org/2000/svg" xmlns:xlink="http://www.w3.org/1999/xlink" id="Capa_1" overflow="hidden"><g><g><path d=" M 392 0 L 88 0 C 65.92 0.026 48.026 17.92 48 40 L 48 256 C 48.026 278.08 65.92 295.974 88 296 L 197.392 296 L 185.968 336 L 160 336 L 160 352 L 320 352 L 320 336 L 294.032 336 L 282.608 296 L 392 296 C 414.08 295.974 431.974 278.08 432 256 L 432 40 C 431.974 17.92 414.08 0.026 392 0 Z M 202.608 336 L 214.032 296 L 265.968 296 L 277.392 336 L 202.608 336 Z M 416 256 C 416 269.255 405.255 280 392 280 L 88 280 C 74.745 280 64 269.255 64 256 L 64 240 L 416 240 L 416 256 Z M 416 224 L 64 224 L 64 40 C 64 26.745 74.745 16 88 16 L 392 16 C 405.255 16 416 26.745 416 40 L 416 224 Z" stroke="none" stroke-width="1" stroke-linecap="butt" fill="#FFFFFF" fill-opacity="1"/></g></g><g><g><path d=" M 304 368 L 80 368 C 75.582 368 72 371.582 72 376 L 72 472 C 72 476.418 75.582 480 80 480 L 304 480 C 308.418 480 312 476.418 312 472 L 312 376 C 312 371.582 308.418 368 304 368 Z M 296 464 L 88 464 L 88 384 L 296 384 L 296 464 Z" stroke="none" stroke-width="1" stroke-linecap="butt" fill="#FFFFFF" fill-opacity="1"/></g></g><g><g><rect x="104" y="432" width="16" height="16" stroke="none" stroke-width="1" stroke-linecap="butt" fill="#FFFFFF" fill-opacity="1"/></g></g><g><g><rect x="104" y="400" width="16" height="16" stroke="none" stroke-width="1" stroke-linecap="butt" fill="#FFFFFF" fill-opacity="1"/></g></g><g><g><rect x="136" y="400" width="16" height="16" stroke="none" stroke-width="1" stroke-linecap="butt" fill="#FFFFFF" fill-opacity="1"/></g></g><g><g><rect x="168" y="400" width="16" height="16" stroke="none" stroke-width="1" stroke-linecap="butt" fill="#FFFFFF" fill-opacity="1"/></g></g><g><g><rect x="232" y="400" width="16" height="16" stroke="none" stroke-width="1" stroke-linecap="butt" fill="#FFFFFF" fill-opacity="1"/></g></g><g><g><rect x="200" y="400" width="16" height="16" stroke="none" stroke-width="1" stroke-linecap="butt" fill="#FFFFFF" fill-opacity="1"/></g></g><g><g><rect x="264" y="432" width="16" height="16" stroke="none" stroke-width="1" stroke-linecap="butt" fill="#FFFFFF" fill-opacity="1"/></g></g><g><g><rect x="264" y="400" width="16" height="16" stroke="none" stroke-width="1" stroke-linecap="butt" fill="#FFFFFF" fill-opacity="1"/></g></g><g><g><rect x="136" y="432" width="112" height="16" stroke="none" stroke-width="1" stroke-linecap="butt" fill="#FFFFFF" fill-opacity="1"/></g></g><g><g><path d=" M 368 368 C 345.909 368 328 385.909 328 408 L 328 440 C 328 462.091 345.909 480 368 480 C 390.091 480 408 462.091 408 440 L 408 408 C 408 385.909 390.091 368 368 368 Z M 392 440 C 392 453.255 381.255 464 368 464 C 354.745 464 344 453.255 344 440 L 344 408 C 344 394.745 354.745 384 368 384 C 381.255 384 392 394.745 392 408 L 392 440 Z" stroke="none" stroke-width="1" stroke-linecap="butt" fill="#FFFFFF" fill-opacity="1"/></g></g><g><g><rect x="360" y="400" width="16" height="16" stroke="none" stroke-width="1" stroke-linecap="butt" fill="#FFFFFF" fill-opacity="1"/></g></g><g><g><rect x="181.737" y="120.139" width="116.43" height="15.993" stroke="none" stroke-width="1" stroke-linecap="butt" fill="#FFFFFF" fill-opacity="1" transform="matrix(0.2751,-0.9614,0.9614,0.2751,50.7457,323.576)"/></g></g><g><g><path d=" M 197.12 94.144 L 186.88 81.856 L 138.88 121.856 C 135.487 124.686 135.03 129.73 137.86 133.124 C 138.169 133.494 138.51 133.836 138.88 134.144 L 186.88 174.144 L 197.12 161.856 L 156.496 128 L 197.12 94.144 Z" stroke="none" stroke-width="1" stroke-linecap="butt" fill="#FFFFFF" fill-opacity="1"/></g></g><g><g><path d=" M 342.14 122.876 C 341.831 122.506 341.49 122.164 341.12 121.856 L 293.12 81.856 L 282.88 94.144 L 323.504 128 L 282.88 161.856 L 293.12 174.144 L 341.12 134.144 C 344.513 131.314 344.97 126.27 342.14 122.876 Z" stroke="none" stroke-width="1" stroke-linecap="butt" fill="#FFFFFF" fill-opacity="1"/></g></g><g></g><g></g><g></g><g></g><g></g><g></g><g></g><g></g><g></g><g></g><g></g><g></g><g></g><g></g><g></g></svg>
