<svg version="1.1" width="24" height="24" viewBox="0 0 24 24" xmlns="http://www.w3.org/2000/svg" xmlns:xlink="http://www.w3.org/1999/xlink" overflow="hidden"><path d=" M 12 2.02 C 17.514 2.02 22 6.506 22 12.02 C 22 17.534 17.514 22.02 12 22.02 C 6.486 22.02 2 17.534 2 12.02 C 2 6.506 6.486 2.02 12 2.02 Z M 12 0.02 C 5.373 0.02 0 5.393 0 12.02 C 0 18.647 5.373 24.02 12 24.02 C 18.627 24.02 24 18.647 24 12.02 C 24 5.393 18.627 0.02 12 0.02 Z M 12 12.57 L 6.008 8 L 17.991 8 L 12 12.57 Z M 12 13.858 L 6 9.229 L 6 16 L 18 16 L 18 9.229 L 12 13.858 Z" stroke="none" stroke-width="1" stroke-linecap="butt" fill="#FFFFFF" fill-opacity="1"/></svg>