<svg version="1.1" width="512" height="512" viewBox="0 0 512 512" xmlns="http://www.w3.org/2000/svg" xmlns:xlink="http://www.w3.org/1999/xlink" id="outline" overflow="hidden"><path d=" M 360 216 C 360 193.944 342.056 176 320 176 C 297.944 176 280 193.944 280 216 C 280 238.056 297.944 256 320 256 C 342.056 256 360 238.056 360 216 Z M 296 216 C 296 202.767 306.767 192 320 192 C 333.233 192 344 202.767 344 216 C 344 229.233 333.233 240 320 240 C 306.767 240 296 229.233 296 216 Z" stroke="none" stroke-width="1" stroke-linecap="butt" fill="#FFFFFF" fill-opacity="1"/><path d=" M 256 400 C 278.056 400 296 382.056 296 360 C 296 337.944 278.056 320 256 320 C 233.944 320 216 337.944 216 360 C 216 382.056 233.944 400 256 400 Z M 256 336 C 269.233 336 280 346.767 280 360 C 280 373.233 269.233 384 256 384 C 242.767 384 232 373.233 232 360 C 232 346.767 242.767 336 256 336 Z" stroke="none" stroke-width="1" stroke-linecap="butt" fill="#FFFFFF" fill-opacity="1"/><path d=" M 72 400 L 136 400 C 140.418 400 144 396.418 144 392 L 144 328 C 144 323.582 140.418 320 136 320 L 72 320 C 67.5815 320 64 323.582 64 328 L 64 392 C 64 396.418 67.5815 400 72 400 Z M 80 336 L 128 336 L 128 384 L 80 384 Z" stroke="none" stroke-width="1" stroke-linecap="butt" fill="#FFFFFF" fill-opacity="1"/><path d=" M 376 400 L 440 400 C 442.772 400 445.348 398.564 446.805 396.206 C 448.263 393.847 448.396 390.902 447.155 388.422 L 415.155 324.422 C 413.8 321.712 411.03 320 408 320 C 404.97 320 402.2 321.712 400.845 324.422 L 368.845 388.422 C 367.604 390.902 367.737 393.847 369.195 396.206 C 370.652 398.564 373.228 400 376 400 Z M 408 345.889 L 427.056 384 L 388.944 384 Z" stroke="none" stroke-width="1" stroke-linecap="butt" fill="#FFFFFF" fill-opacity="1"/><path d=" M 504 88 L 440 88 L 304 88 C 301.878 88 299.843 88.8428 298.343 90.3433 L 242.343 146.343 C 239.219 149.467 239.219 154.533 242.343 157.657 L 243.716 159.029 C 259.312 174.626 284.688 174.626 300.284 159.029 L 323.314 136 L 356.686 136 L 373.007 152.32 C 367.974 159.144 365.255 167.363 365.255 176 C 365.255 186.685 369.416 196.729 376.971 204.284 L 378.343 205.657 C 379.905 207.219 381.953 208 384 208 C 386.047 208 388.095 207.219 389.657 205.657 L 427.314 168 L 440 168 L 504 168 C 508.418 168 512 164.418 512 160 L 512 96 C 512 91.5815 508.418 88 504 88 Z M 432 152 L 424 152 C 421.878 152 419.843 152.843 418.343 154.343 L 384.542 188.144 C 382.398 184.501 381.255 180.338 381.255 176 C 381.255 169.589 383.751 163.563 388.284 159.029 L 389.657 157.657 C 392.781 154.533 392.781 149.467 389.657 146.343 L 365.657 122.343 C 364.157 120.843 362.122 120 360 120 L 320 120 C 317.878 120 315.843 120.843 314.343 122.343 L 288.971 147.716 C 281.094 155.594 269.057 156.84 259.861 151.452 L 307.314 104 L 432 104 Z M 496 152 L 448 152 L 448 104 L 496 104 Z" stroke="none" stroke-width="1" stroke-linecap="butt" fill="#FFFFFF" fill-opacity="1"/><path d=" M 504 272 L 104 272 L 104 206.624 C 113.311 203.322 120 194.429 120 184 L 120 161.869 C 124.906 157.472 128 151.091 128 144 L 128 134.627 C 128 132.491 128.832 130.481 130.343 128.97 C 148.523 110.791 148.523 81.2095 130.343 63.0298 L 129.657 62.3433 C 111.098 43.7847 80.9019 43.7847 62.3433 62.3433 L 61.6567 63.0298 C 43.4766 81.2095 43.4766 110.791 61.6567 128.97 C 63.168 130.481 64 132.491 64 134.627 L 64 144 C 64 151.091 67.0939 157.472 72 161.869 L 72 184 C 72 194.429 78.6887 203.322 88 206.624 L 88 272 L 8 272 C 3.58154 272 0 275.582 0 280 L 0 440 C 0 444.418 3.58154 448 8 448 L 88 448 L 88 488 C 88 501.233 98.7666 512 112 512 L 336 512 C 349.233 512 360 501.233 360 488 C 360 474.767 349.233 464 336 464 L 272 464 C 267.589 464 264 460.411 264 456 L 264 448 L 504 448 C 508.418 448 512 444.418 512 440 L 512 280 C 512 275.582 508.418 272 504 272 Z M 72.9702 74.3433 L 73.6567 73.6567 C 79.8169 67.4971 87.9082 64.417 96 64.417 C 104.092 64.417 112.183 67.4971 118.343 73.6567 L 119.03 74.3433 C 130.971 86.2847 130.971 105.715 119.03 117.657 C 114.497 122.19 112 128.217 112 134.627 L 112 144 C 112 148.411 108.411 152 104 152 L 88 152 C 83.5889 152 80 148.411 80 144 L 80 134.627 C 80 128.217 77.5034 122.19 72.9702 117.657 C 61.0288 105.715 61.0288 86.2847 72.9702 74.3433 Z M 104 168 L 104 184 C 104 188.411 100.411 192 96 192 C 91.5889 192 88 188.411 88 184 L 88 168 Z M 272 480 L 336 480 C 340.411 480 344 483.589 344 488 C 344 492.411 340.411 496 336 496 L 112 496 C 107.589 496 104 492.411 104 488 L 104 448 L 248 448 L 248 456 C 248 469.233 258.767 480 272 480 Z M 496 432 L 16 432 L 16 288 L 496 288 Z" stroke="none" stroke-width="1" stroke-linecap="butt" fill="#FFFFFF" fill-opacity="1"/><path d=" M 96 32 C 100.418 32 104 28.4185 104 24 L 104 8 C 104 3.58154 100.418 0 96 0 C 91.5815 0 88 3.58154 88 8 L 88 24 C 88 28.4185 91.5815 32 96 32 Z" stroke="none" stroke-width="1" stroke-linecap="butt" fill="#FFFFFF" fill-opacity="1"/><path d=" M 50.7452 50.7452 C 53.8695 47.6208 53.8695 42.5558 50.7452 39.4315 L 39.4315 28.1177 C 36.3071 24.9934 31.2421 24.9934 28.1177 28.1177 C 24.9934 31.2421 24.9934 36.3071 28.1177 39.4315 L 39.4315 50.7452 C 42.5558 53.8695 47.6208 53.8695 50.7452 50.7452 Z" stroke="none" stroke-width="1" stroke-linecap="butt" fill="#FFFFFF" fill-opacity="1"/><path d=" M 141.255 50.7452 C 138.131 47.6208 138.131 42.5558 141.255 39.4315 L 152.569 28.1177 C 155.693 24.9934 160.758 24.9934 163.882 28.1177 C 167.007 31.2421 167.007 36.3071 163.882 39.4315 L 152.569 50.7452 C 149.444 53.8695 144.379 53.8695 141.255 50.7452 Z" stroke="none" stroke-width="1" stroke-linecap="butt" fill="#FFFFFF" fill-opacity="1"/><path d=" M 8 104 L 24 104 C 28.4185 104 32 100.418 32 96 C 32 91.5815 28.4185 88 24 88 L 8 88 C 3.58154 88 0 91.5815 0 96 C 0 100.418 3.58154 104 8 104 Z" stroke="none" stroke-width="1" stroke-linecap="butt" fill="#FFFFFF" fill-opacity="1"/><path d=" M 160 96 C 160 100.418 163.582 104 168 104 L 184 104 C 188.418 104 192 100.418 192 96 C 192 91.5815 188.418 88 184 88 L 168 88 C 163.582 88 160 91.5815 160 96 Z" stroke="none" stroke-width="1" stroke-linecap="butt" fill="#FFFFFF" fill-opacity="1"/><path d=" M 80 112 C 83.4307 112 86.3564 109.841 87.4937 106.807 L 90.3433 109.657 C 93.4673 112.781 98.5327 112.781 101.657 109.657 L 104.506 106.807 C 105.644 109.841 108.569 112 112 112 C 116.418 112 120 108.418 120 104 L 120 88 C 120 84.7642 118.051 81.8472 115.062 80.6089 C 112.072 79.3706 108.631 80.0552 106.343 82.3433 L 96 92.6865 L 85.6567 82.3433 C 83.3696 80.0557 79.9297 79.3721 76.9385 80.6089 C 73.9492 81.8472 72 84.7642 72 88 L 72 104 C 72 108.418 75.5815 112 80 112 Z" stroke="none" stroke-width="1" stroke-linecap="butt" fill="#FFFFFF" fill-opacity="1"/><path d=" M 360 32 C 364.418 32 368 28.4185 368 24 C 368 19.5889 371.589 16 376 16 C 380.411 16 384 19.5889 384 24 C 384 28.4111 380.411 32 376 32 C 371.582 32 368 35.5815 368 40 L 368 48 C 368 52.4185 371.582 56 376 56 C 380.418 56 384 52.4185 384 48 L 384 46.6289 C 393.313 43.3271 400 34.4302 400 24 C 400 10.7661 389.234 3.55271e-15 376 3.55271e-15 C 362.766 3.55271e-15 352 10.7661 352 24 C 352 28.4185 355.582 32 360 32 Z" stroke="none" stroke-width="1" stroke-linecap="butt" fill="#FFFFFF" fill-opacity="1"/><circle cx="376" cy="72" r="8" stroke="none" stroke-width="1" stroke-linecap="butt" fill="#FFFFFF" fill-opacity="1"/></svg>
