<svg version="1.1" width="24" height="24" viewBox="0 0 24 24" xmlns="http://www.w3.org/2000/svg" xmlns:xlink="http://www.w3.org/1999/xlink" overflow="hidden"><path d=" M 12 2 C 17.514 2 22 6.486 22 12 C 22 17.514 17.514 22 12 22 C 6.486 22 2 17.514 2 12 C 2 6.486 6.486 2 12 2 Z M 12 0 C 5.373 0 0 5.373 0 12 C 0 18.627 5.373 24 12 24 C 18.627 24 24 18.627 24 12 C 24 5.373 18.627 0 12 0 Z M 10 8 C 10 8.557 9.553 9.008 9 9.008 C 8.447 9.008 8 8.558 8 8 C 8 7.443 8.447 6.992 9 6.992 C 9.553 6.992 10 7.444 10 8 Z M 10 10 L 8 10 L 8 16 L 10 16 L 10 10 Z M 13 10 L 11 10 L 11 16 L 13 16 L 13 13.139 C 13 11.417 15.002 11.258 15.002 13.139 L 15.002 16 L 17 16 L 17 12.641 C 17 9.357 13.872 9.477 13 11.093 L 13 10 Z" stroke="none" stroke-width="1" stroke-linecap="butt" fill="#FFFFFF" fill-opacity="1"/></svg>