<svg version="1.1" width="24" height="24" viewBox="0 0 24 24" xmlns="http://www.w3.org/2000/svg" xmlns:xlink="http://www.w3.org/1999/xlink" overflow="hidden"><path d=" M 12 2 C 17.514 2 22 6.486 22 12 C 22 17.514 17.514 22 12 22 C 6.486 22 2 17.514 2 12 C 2 6.486 6.486 2 12 2 Z M 12 0 C 5.373 0 0 5.373 0 12 C 0 18.627 5.373 24 12 24 C 18.627 24 24 18.627 24 12 C 24 5.373 18.627 0 12 0 Z M 16.5 17.311 L 14.74 13.914 L 13.708 14.419 C 12.588 14.962 10.308 10.509 11.403 9.922 L 12.445 9.409 L 10.698 6 L 9.645 6.52 C 6.044 8.397 11.762 19.511 15.445 17.828 L 16.5 17.311 Z" stroke="none" stroke-width="1" stroke-linecap="butt" fill="#FFFFFF" fill-opacity="1"/></svg>