<svg version="1.1" viewBox="0 0 96 96" xmlns="http://www.w3.org/2000/svg" xmlns:xlink="http://www.w3.org/1999/xlink" id="Icons_Uturn" overflow="hidden"><path d=" M 86.3 44.3 C 85.3 42.3 84 40.5 82.6 38.8 C 74.3 29.3 59.2 29 59.2 29 L 30 29 L 30 14 C 25.8 18.1 25.9 17.1 6 37 C 6.1 37 25.9 57.9 30 62 L 30 46.6 L 59.1 46.6 C 59.1 46.6 73 46.6 73 59.8 C 73 74.3 49 74 49 74 L 10 77 C 10 77 37.5 81.5 63.1 81.2 C 82 81 94.8 61.2 86.3 44.3 Z" stroke="none" stroke-width="1" stroke-linecap="butt" fill="#FFFFFF" fill-opacity="1"/></svg>