<svg version="1.1" width="24" height="24" viewBox="0 0 24 24" xmlns="http://www.w3.org/2000/svg" xmlns:xlink="http://www.w3.org/1999/xlink" overflow="hidden"><path d=" M 12 2 C 17.514 2 22 6.486 22 12 C 22 17.514 17.514 22 12 22 C 6.486 22 2 17.514 2 12 C 2 6.486 6.486 2 12 2 Z M 12 0 C 5.373 0 0 5.373 0 12 C 0 18.627 5.373 24 12 24 C 18.627 24 24 18.627 24 12 C 24 5.373 18.627 0 12 0 Z M 18.5 8.778 C 18.059 8.974 17.584 9.106 17.086 9.166 C 17.595 8.861 17.984 8.379 18.169 7.804 C 17.693 8.086 17.166 8.291 16.605 8.401 C 16.157 7.922 15.516 7.623 14.809 7.623 C 13.219 7.623 12.051 9.106 12.41 10.646 C 10.365 10.543 8.55 9.563 7.336 8.074 C 6.691 9.18 7.002 10.628 8.098 11.361 C 7.695 11.348 7.316 11.237 6.984 11.053 C 6.957 12.193 7.775 13.26 8.959 13.498 C 8.613 13.592 8.233 13.614 7.847 13.54 C 8.16 14.518 9.071 15.229 10.147 15.249 C 9.11 16.061 7.807 16.424 6.5 16.27 C 7.59 16.969 8.883 17.376 10.273 17.376 C 14.845 17.376 17.427 13.515 17.271 10.052 C 17.753 9.706 18.17 9.272 18.5 8.778 Z" stroke="none" stroke-width="1" stroke-linecap="butt" fill="#FFFFFF" fill-opacity="1"/></svg>